<svg width="21" height="33" viewBox="0 0 21 33" fill="none" xmlns="http://www.w3.org/2000/svg">
<path d="M10.5 0.91748C5.1141 0.91748 0.75 5.26403 0.75 10.648C0.75 19.9573 10.5 32.098 10.5 32.098C10.5 32.098 20.25 19.9553 20.25 10.648C20.25 5.26598 15.8859 0.91748 10.5 0.91748ZM10.5 16.0319C9.10364 16.0319 7.76446 15.4772 6.77708 14.4898C5.7897 13.5025 5.235 12.1633 5.235 10.7669C5.235 9.37057 5.7897 8.03139 6.77708 7.04401C7.76446 6.05663 9.10364 5.50193 10.5 5.50193C11.8964 5.50193 13.2355 6.05663 14.2229 7.04401C15.2103 8.03139 15.765 9.37057 15.765 10.7669C15.765 12.1633 15.2103 13.5025 14.2229 14.4898C13.2355 15.4772 11.8964 16.0319 10.5 16.0319Z" fill="#666666"/>
</svg>
