<svg width="31" height="29" viewBox="0 0 31 29" fill="none" xmlns="http://www.w3.org/2000/svg">
<path d="M28.433 0.265625H3.47205C2.76892 0.265625 2.17322 0.620401 1.68494 1.32995C1.19666 2.0395 0.952515 2.85822 0.952515 3.78609V24.7452C0.952515 25.673 1.19666 26.4917 1.68494 27.2013C2.17322 27.9108 2.76892 28.2656 3.47205 28.2656H28.433C29.1361 28.2656 29.7318 27.9108 30.2201 27.2013C30.7084 26.4917 30.9525 25.673 30.9525 24.7452V3.78609C30.9525 2.85822 30.7084 2.0395 30.2201 1.32995C29.7318 0.620401 29.1361 0.265625 28.433 0.265625ZM26.0892 3.78609L15.9525 12.137L5.8158 3.78609H26.0892ZM3.47205 24.7452V5.91475L15.308 15.8212C15.3861 15.9303 15.601 15.9849 15.9525 15.9849C16.3041 15.9849 16.5189 15.9303 16.597 15.8212L28.433 5.91475V24.7452H3.47205Z" fill="white"/>
</svg>
