<svg width="30" height="24" viewBox="0 0 30 24" fill="none" xmlns="http://www.w3.org/2000/svg">
<path d="M3.66671 9.16675V20.5001H26.3334V9.16675L15 13.4167L3.66671 9.16675ZM3.66671 3.50008V6.33341L15 10.5834L26.3334 6.33341V3.50008H3.66671ZM3.66671 0.666748H26.3334C27.0848 0.666748 27.8055 0.965259 28.3368 1.49661C28.8682 2.02796 29.1667 2.74863 29.1667 3.50008V20.5001C29.1667 21.2515 28.8682 21.9722 28.3368 22.5035C27.8055 23.0349 27.0848 23.3334 26.3334 23.3334H3.66671C2.91526 23.3334 2.19459 23.0349 1.66324 22.5035C1.13188 21.9722 0.833374 21.2515 0.833374 20.5001V3.50008C0.833374 2.74863 1.13188 2.02796 1.66324 1.49661C2.19459 0.965259 2.91526 0.666748 3.66671 0.666748Z" fill="#666666"/>
</svg>
