<?xml version="1.0" standalone="no"?><!DOCTYPE svg PUBLIC "-//W3C//DTD SVG 1.1//EN" "http://www.w3.org/Graphics/SVG/1.1/DTD/svg11.dtd"><svg t="1609935991386" class="icon" viewBox="0 0 1024 1024" version="1.1" xmlns="http://www.w3.org/2000/svg" p-id="9245" xmlns:xlink="http://www.w3.org/1999/xlink" width="64" height="64"><defs><style type="text/css"></style></defs><path d="M900.924952 195.584c-2.194286 72.46019-17.846857 142.140952-43.983238 209.67619-31.207619 80.700952-76.946286 151.79581-141.019428 210.505143a17.993143 17.993143 0 0 0-6.144 16.579048c2.243048 21.74781 3.998476 43.495619 6.241524 65.243429 5.217524 50.663619-12.53181 92.111238-53.345524 121.514666-43.836952 31.548952-89.380571 60.708571-134.582857 90.209524-28.525714 18.67581-63.536762 1.755429-66.706286-32.036571a4830.256762 4830.256762 0 0 1-9.216-116.540953c-1.365333-19.504762-0.828952-19.651048-19.651048-22.137905-50.029714-6.631619-89.234286-30.378667-116.053333-73.48419-13.848381-22.137905-20.72381-46.713905-23.113143-72.460191-0.731429-7.704381-3.85219-9.703619-11.117714-10.093714-40.472381-2.243048-80.944762-4.632381-121.417143-7.704381-33.596952-2.535619-50.663619-38.034286-32.670476-67.584 12.678095-20.821333 26.185143-41.106286 39.253333-61.635047 14.09219-22.137905 28.086857-44.373333 42.179048-66.413715 25.84381-40.472381 63.049143-62.317714 110.689523-62.707809 27.306667-0.195048 54.710857 4.583619 81.968762 7.558095 5.168762 0.536381 8.825905-0.146286 12.385524-4.144762 63.390476-70.802286 141.750857-118.588952 230.448762-150.576762a652.726857 652.726857 0 0 1 154.770286-35.303619c26.672762-2.779429 53.540571-3.754667 80.213333 1.170286 14.531048 2.681905 15.311238 3.267048 17.554286 17.505524 2.194286 14.140952 3.998476 28.42819 3.315809 42.910476z m-126.439619 178.761143c0.78019-61.927619-50.517333-115.126857-111.469714-116.150857-63.292952-1.072762-118.101333 44.958476-119.612952 116.833524-1.26781 59.977143 53.052952 114.200381 113.615238 114.639238a116.248381 116.248381 0 0 0 117.467428-115.321905zM233.862095 636.001524c11.946667 0.195048 18.627048 5.461333 22.918095 17.700571 16.822857 47.981714 47.445333 84.358095 91.867429 109.031619 9.849905 5.412571 20.138667 9.849905 30.817524 13.458286 19.21219 6.582857 23.600762 25.258667 9.362286 39.643429-21.113905 21.308952-42.422857 42.374095-63.488 63.634285-6.972952 7.021714-14.628571 10.386286-24.478477 6.729143-9.947429-3.705905-14.726095-11.068952-15.262476-21.406476-0.292571-6.534095-0.146286-13.06819-0.292571-19.651048-0.292571-12.04419-0.390095-12.141714-11.459048-8.435809-23.698286 7.801905-47.396571 15.750095-71.046095 23.600762-7.021714 2.29181-13.994667 3.267048-20.821333-0.585143-10.044952-5.705143-13.799619-15.847619-9.752381-28.281905 7.801905-24.380952 16.091429-48.566857 24.137142-72.850286 3.510857-10.532571 3.267048-10.727619-8.094476-10.922666-6.826667-0.146286-13.750857 0-20.577524-0.341334a21.845333 21.845333 0 0 1-20.821333-14.774857c-3.608381-9.216-1.26781-17.212952 5.461333-23.990857 21.991619-22.137905 44.080762-44.178286 66.169905-66.218667a19.017143 19.017143 0 0 1 15.36-6.339047z" fill="#bfbfbf" p-id="9246"></path></svg>