<svg width="36" height="35" viewBox="0 0 36 35" fill="none" xmlns="http://www.w3.org/2000/svg">
<path d="M18.4369 0.265626C8.77673 0.26172 0.952515 8.08204 0.952515 17.7344C0.952515 25.3672 5.84705 31.8555 12.6635 34.2383C13.5814 34.4688 13.4408 33.8164 13.4408 33.3711V30.3438C8.14002 30.9649 7.92517 27.4571 7.5697 26.8711C6.85095 25.6446 5.15173 25.3321 5.65955 24.7461C6.86658 24.125 8.09705 24.9024 9.52283 27.0078C10.5541 28.5352 12.5658 28.2774 13.5853 28.0235C13.808 27.1055 14.2845 26.2852 14.9408 25.6485C9.44861 24.6641 7.15955 21.3125 7.15955 17.3281C7.15955 15.3945 7.79627 13.6172 9.04626 12.1836C8.24939 9.82032 9.12048 7.79688 9.23767 7.4961C11.5072 7.29298 13.8666 9.1211 14.0502 9.26563C15.3392 8.91798 16.8119 8.73438 18.4603 8.73438C20.1166 8.73438 21.5931 8.92579 22.8939 9.27735C23.3353 8.94141 25.5228 7.3711 27.6322 7.56251C27.7455 7.86329 28.597 9.83985 27.847 12.1719C29.1127 13.6094 29.7572 15.4024 29.7572 17.3399C29.7572 21.3321 27.4525 24.6875 21.9447 25.6563C22.4165 26.1202 22.791 26.6735 23.0466 27.2838C23.3021 27.8942 23.4335 28.5493 23.433 29.211V33.6055C23.4642 33.9571 23.433 34.3047 24.0189 34.3047C30.9369 31.9727 35.9174 25.4375 35.9174 17.7383C35.9174 8.08204 28.0892 0.265626 18.4369 0.265626Z" fill="black"/>
</svg>
