<?xml version="1.0" standalone="no"?><!DOCTYPE svg PUBLIC "-//W3C//DTD SVG 1.1//EN" "http://www.w3.org/Graphics/SVG/1.1/DTD/svg11.dtd"><svg t="1609950484186" class="icon" viewBox="0 0 1024 1024" version="1.1" xmlns="http://www.w3.org/2000/svg" p-id="7215" xmlns:xlink="http://www.w3.org/1999/xlink" width="128" height="128"><defs><style type="text/css"></style></defs><path d="M874.666667 106.666667H149.333333l64 725.333333 298.666667 85.333333 298.666667-85.333333 64-725.333333z" fill="#E65100" p-id="7216"></path><path d="M512 170.666667v680.533333l238.933333-68.266667L804.266667 170.666667z" fill="#FF6D00" p-id="7217"></path><path d="M512 533.333333v-85.333333h183.466667l-14.933334 245.333333-168.533333 55.466667v-89.6l87.466667-29.866667 6.4-96H512z m189.866667-170.666666l6.4-85.333334H512v85.333334h189.866667z" fill="#FFFFFF" p-id="7218"></path><path d="M512 659.2v89.6l-168.533333-55.466667-8.533334-117.333333h85.333334l4.266666 53.333333 87.466667 29.866667zM407.466667 362.666667H512v-85.333334h-194.133333l14.933333 256H512v-85.333333h-98.133333l-6.4-85.333333z" fill="#EEEEEE" p-id="7219"></path></svg>