<?xml version="1.0" standalone="no"?><!DOCTYPE svg PUBLIC "-//W3C//DTD SVG 1.1//EN" "http://www.w3.org/Graphics/SVG/1.1/DTD/svg11.dtd"><svg t="1609951054880" class="icon" viewBox="0 0 1024 1024" version="1.1" xmlns="http://www.w3.org/2000/svg" p-id="2171" xmlns:xlink="http://www.w3.org/1999/xlink" width="128" height="128"><defs><style type="text/css"></style></defs><path d="M65.45 250.624c-90.58 130.133-79.36 299.392-10.111 437.59 1.578 3.37 3.328 6.57 5.034 9.77 0.982 2.219 2.091 4.267 3.286 6.357 0.554 1.195 1.322 2.432 2.005 3.542 1.11 2.218 2.304 4.352 3.456 6.485l6.699 11.307c1.237 2.09 2.432 4.138 3.84 6.229 2.346 4.01 5.12 7.979 7.552 11.99 1.109 1.663 2.133 3.327 3.37 4.991a271.36 271.36 0 0 0 13.227 18.944c3.328 4.566 6.656 9.003 10.24 13.44 1.152 1.622 2.432 3.243 3.627 4.864l9.429 11.478c1.152 1.322 2.304 2.858 3.541 4.224 4.182 5.034 8.619 9.941 13.056 14.89 0 0.086 0.128 0.171 0.214 0.299a133.547 133.547 0 0 0 18.09 18.773c3.414 3.499 6.827 6.998 10.454 10.411l4.309 4.139c4.736 4.437 9.472 8.874 14.464 13.141 0.085 0 0.128 0.085 0.213 0.128l2.432 2.133c4.352 3.798 8.747 7.595 13.227 11.094l5.333 4.48c3.627 2.901 7.382 5.674 11.094 8.533l5.802 4.437c3.968 2.987 8.192 5.931 12.246 8.832 1.493 1.067 2.986 2.134 4.522 3.115l1.238 0.981 11.989 7.894 5.12 3.413c6.272 4.01 12.501 7.808 18.688 11.563a68.937 68.937 0 0 1 5.248 2.901c4.608 2.645 9.387 5.333 14.037 7.808 2.56 1.45 5.206 2.688 7.851 4.01 3.2 1.793 6.528 3.542 9.941 5.334a13.824 13.824 0 0 1 2.39 0.981c1.408 0.64 2.73 1.323 4.096 2.006 5.12 2.56 10.453 4.992 16 7.424 1.024 0.426 2.133 0.853 3.242 1.45a567.649 567.649 0 0 0 18.646 7.766c1.45 0.426 2.986 1.152 4.48 1.706 5.76 2.176 11.69 4.395 17.536 6.486l2.133 0.768c6.528 2.218 12.97 4.352 19.584 6.4 1.536 0.426 3.115 0.981 4.736 1.408 6.784 2.048 13.355 4.48 20.181 5.802 437.76 79.787 564.992-263.21 564.992-263.21-106.88 139.178-296.533 175.872-476.16 135.04-6.656-1.536-13.312-3.67-20.01-5.632a576.939 576.939 0 0 1-24.192-7.723l-2.646-1.024c-5.802-1.963-11.392-4.139-17.066-6.315a68.821 68.821 0 0 0-4.694-1.749 555.73 555.73 0 0 1-18.432-7.808c-1.322-0.427-2.432-1.024-3.754-1.536a998.827 998.827 0 0 1-15.403-7.253 63.275 63.275 0 0 1-4.523-2.219c-4.01-1.877-8.021-4.01-11.946-6.059a168.192 168.192 0 0 1-7.979-4.096c-4.821-2.56-9.643-5.333-14.464-7.978-1.45-1.024-3.115-1.878-4.779-2.816a678.485 678.485 0 0 1-18.688-11.478 89.77 89.77 0 0 1-5.034-3.37 256.085 256.085 0 0 1-13.312-8.79c-1.494-0.981-2.859-2.048-4.395-3.114a407.083 407.083 0 0 1-12.544-9.046c-1.792-1.45-3.712-2.816-5.632-4.266-3.755-2.944-7.552-5.76-11.307-8.875l-5.034-4.01a451.413 451.413 0 0 1-14.251-11.99 11.008 11.008 0 0 0-1.579-1.28L265.6 722.261l-4.267-4.01c-3.498-3.542-7.082-6.955-10.666-10.454l-4.139-4.266a386.987 386.987 0 0 1-13.184-13.782l-0.64-0.682a765.61 765.61 0 0 1-13.355-15.104c-1.152-1.323-2.218-2.731-3.413-4.139l-9.643-11.819a906.581 906.581 0 0 1-14.506-19.114C92.16 502.869 56.107 315.136 135.85 161.152" fill="#0769AD" p-id="2172"></path><path d="M346.496 141.013c-65.664 94.251-61.952 220.288-10.837 319.958a388.267 388.267 0 0 0 28.885 48.298c9.813 14.08 20.65 30.72 33.792 42.07 4.565 5.205 9.515 10.24 14.677 15.317l3.84 3.84c4.864 4.693 9.856 9.301 14.934 13.867l0.64 0.554a420.48 420.48 0 0 0 17.664 14.592c1.45 0.982 2.688 2.134 4.096 3.115a527.948 527.948 0 0 0 18.218 13.44l0.64 0.384c2.646 1.92 5.462 3.67 8.448 5.547 1.195 0.768 2.56 1.792 3.84 2.56 4.523 2.901 8.96 5.632 13.526 8.405 0.725 0.299 1.365 0.683 2.048 0.981 3.84 2.347 8.021 4.608 12.032 6.699 1.408 0.853 2.773 1.493 4.224 2.304 2.858 1.408 5.674 2.901 8.405 4.352l1.365 0.597c5.76 2.816 11.648 5.462 17.408 8.107 1.451 0.555 2.688 1.024 3.926 1.621a402.59 402.59 0 0 0 14.293 5.846c2.133 0.725 4.139 1.578 6.144 2.218 4.352 1.622 8.917 3.115 13.227 4.608l5.973 1.92c6.23 1.92 12.544 4.438 19.115 5.504 337.92 56.022 416.17-204.245 416.17-204.245-70.442 101.376-206.762 149.675-352.042 111.957a342.613 342.613 0 0 1-19.115-5.546c-2.048-0.555-3.84-1.195-5.803-1.792-4.437-1.536-9.002-3.03-13.312-4.651l-6.144-2.304c-4.778-1.92-9.642-3.712-14.293-5.76-1.45-0.64-2.773-1.067-3.883-1.707-5.973-2.688-11.989-5.333-17.792-8.192l-8.789-4.565-5.077-2.56a241.92 241.92 0 0 1-11.307-6.4 26.453 26.453 0 0 1-2.645-1.45c-4.523-2.817-9.216-5.547-13.526-8.449-1.45-0.81-2.773-1.792-4.138-2.645l-8.875-5.803c-6.144-4.266-12.16-8.874-18.219-13.312-1.365-1.237-2.688-2.261-4.01-3.37-63.872-50.219-114.262-118.87-138.155-196.608-25.173-80.811-19.627-171.435 23.85-244.992" fill="#0769AD" p-id="2173"></path><path d="M582.827 59.05c-38.742 56.833-42.454 127.403-15.787 190.08 28.33 66.56 86.272 118.827 153.77 143.574 2.774 1.067 5.462 1.963 8.32 2.987l3.755 1.152c3.926 1.237 7.894 2.688 11.947 3.584 186.71 36.01 237.227-95.872 250.837-115.243-44.458 63.83-118.997 79.147-210.432 56.917a206.677 206.677 0 0 1-22.016-6.826 270.677 270.677 0 0 1-26.325-10.838 278.23 278.23 0 0 1-46.08-28.16c-81.92-62.037-132.65-180.48-79.232-276.949" fill="#0769AD" p-id="2174"></path></svg>