<?xml version="1.0" standalone="no"?><!DOCTYPE svg PUBLIC "-//W3C//DTD SVG 1.1//EN" "http://www.w3.org/Graphics/SVG/1.1/DTD/svg11.dtd"><svg t="1609934726251" class="icon" viewBox="0 0 1024 1024" version="1.1" xmlns="http://www.w3.org/2000/svg" p-id="2706" width="64" height="64" xmlns:xlink="http://www.w3.org/1999/xlink"><defs><style type="text/css"></style></defs><path d="M669.28 224A157.28 157.28 0 1 0 512 380.96 159.04 159.04 0 0 0 669.28 224zM564.48 380.96h-104.96a236.16 236.16 0 0 0-105.12 25.76A658.88 658.88 0 0 1 512 472a658.88 658.88 0 0 1 157.6-65.28 236.16 236.16 0 0 0-105.12-25.76zM906.88 538.24a52.32 52.32 0 0 0-52.32 52.32v104.96a52.48 52.48 0 0 0 104.8 0v-104.96a52.48 52.48 0 0 0-52.48-52.32zM169.44 695.52v-104.96a52.48 52.48 0 0 0-104.8 0v104.96a52.48 52.48 0 0 0 104.8 0z" p-id="2707" fill="#bfbfbf"></path><path d="M117.12 459.52v26.24a104.96 104.96 0 0 1 104.8 104.8v104.96A104.96 104.96 0 0 1 117.12 800v26.24A26.24 26.24 0 0 0 144 852.8c134.24 0 241.76 42.4 342.4 106.56V518.24c-102.4-57.92-210.4-84.8-342.4-84.8a26.08 26.08 0 0 0-26.88 26.08zM802.08 695.52v-104.96a104.96 104.96 0 0 1 104.8-104.8v-26.24A26.08 26.08 0 0 0 880 433.44c-132.64 0-241.28 26.88-342.4 84.8V960c100.64-64 208-106.56 342.4-106.56a26.24 26.24 0 0 0 26.24-26.24V800a104.96 104.96 0 0 1-104.16-104.48z" p-id="2708" fill="#bfbfbf"></path></svg>