<?xml version="1.0" standalone="no"?><!DOCTYPE svg PUBLIC "-//W3C//DTD SVG 1.1//EN" "http://www.w3.org/Graphics/SVG/1.1/DTD/svg11.dtd"><svg t="1610109534089" class="icon" viewBox="0 0 1024 1024" version="1.1" xmlns="http://www.w3.org/2000/svg" p-id="7796" xmlns:xlink="http://www.w3.org/1999/xlink" width="128" height="128"><defs><style type="text/css"></style></defs><path d="M541.239296 472.966144l0-1.056768c-0.178176 0.357376-0.448512 0.744448-0.685056 1.056768L541.239296 472.966144z" p-id="7797" fill="#ffffff"></path><path d="M510.68928 0c-281.357312 0-509.5168 228.568064-509.5168 510.490624 0 281.9328 228.159488 510.457856 509.5168 510.457856 281.401344 0 509.546496-228.525056 509.546496-510.457856C1020.235776 228.568064 792.090624 0 510.68928 0zM371.633152 754.42688 262.396928 754.42688 262.396928 425.304064 371.633152 425.304064 371.633152 754.42688zM317.022208 380.310528l-0.743424 0c-36.651008 0-60.340224-25.296896-60.340224-56.909824 0-32.264192 24.448-56.876032 61.760512-56.876032 37.38624 0 60.398592 24.61184 61.075456 56.876032C378.774528 355.013632 355.085312 380.310528 317.022208 380.310528zM765.484032 754.42688 656.24064 754.42688 656.24064 578.310144c0-44.205056-15.788032-74.423296-55.3472-74.423296-30.102528 0-48.137216 20.434944-56.046592 40.02816-2.847744 7.026688-3.606528 16.758784-3.606528 26.67008l0 183.841792L432.098304 754.42688c0 0 1.36192-298.283008 0-329.122816l109.140992 0 0 46.605312c14.575616-22.499328 40.502272-54.33856 98.46784-54.33856 71.844864 0 125.776896 46.985216 125.776896 148.092928L765.484032 754.42688z" p-id="7798" fill="#ffffff"></path></svg>