<svg width="40" height="39" viewBox="0 0 40 39" fill="none" xmlns="http://www.w3.org/2000/svg">
<path d="M20.1525 0.265625C9.54852 0.265625 0.952515 8.86167 0.952515 19.4657C0.952515 30.0698 9.54852 38.6658 20.1525 38.6658C30.7565 38.6658 39.3525 30.0698 39.3525 19.4657C39.3525 8.86167 30.7565 0.265625 20.1525 0.265625ZM15.4525 27.4238H11.5645V14.9117H15.4525V27.4238ZM13.4845 13.3757C12.2565 13.3757 11.4625 12.5057 11.4625 11.4297C11.4625 10.3317 12.2805 9.48767 13.5345 9.48767C14.7885 9.48767 15.5565 10.3317 15.5805 11.4297C15.5805 12.5057 14.7885 13.3757 13.4845 13.3757ZM29.6525 27.4238H25.7645V20.4897C25.7645 18.8757 25.2005 17.7797 23.7945 17.7797C22.7205 17.7797 22.0825 18.5217 21.8005 19.2357C21.6965 19.4897 21.6705 19.8497 21.6705 20.2077V27.4218H17.7805V18.9017C17.7805 17.3397 17.7305 16.0337 17.6785 14.9097H21.0565L21.2345 16.6477H21.3125C21.8245 15.8317 23.0785 14.6277 25.1765 14.6277C27.7345 14.6277 29.6525 16.3417 29.6525 20.0257V27.4238Z" fill="black"/>
</svg>
