<svg width="61" height="51" viewBox="0 0 61 51" fill="none" xmlns="http://www.w3.org/2000/svg">
<g clip-path="url(#clip0)">
<path d="M16.4735 0.540855C15.235 2.46746 13.4919 5.7014 13.6295 5.83902C13.7212 5.93076 20.0974 6.04544 27.7809 6.06838C40.5332 6.11425 41.7488 6.13718 41.8176 6.48122C41.8635 6.71058 41.4506 7.5592 40.946 8.40783C40.4185 9.27939 39.891 10.1968 39.7763 10.4491C39.6387 10.7243 39.4093 11.1831 39.2258 11.4812C39.0653 11.8023 38.9735 12.1464 39.0194 12.2381C39.2029 12.5363 52.1846 12.4445 52.1846 12.1464C52.1846 12.0087 51.8864 11.3895 51.4965 10.7702C51.1066 10.1739 50.8084 9.57755 50.8084 9.46287C50.8084 9.37113 50.5102 8.84361 50.1203 8.33902C49.7534 7.8115 49.4323 7.30691 49.4323 7.2381C49.4323 7.14636 48.9965 6.34361 48.446 5.44911C47.8956 4.55462 47.391 3.66012 47.2992 3.47663C47.2075 3.29315 46.9323 2.8115 46.68 2.44452C46.4277 2.05462 46.1066 1.50416 45.9919 1.18306C45.8543 0.884891 45.602 0.540854 45.4644 0.449111C45.3038 0.357368 38.7671 0.265625 30.9231 0.265625C19.7534 0.265625 16.6112 0.334433 16.4735 0.540855ZM9.38639 12.9491C9.2029 13.0638 8.95061 13.362 8.81299 13.6372C8.69831 13.9124 8.51483 14.3023 8.37721 14.4858C7.73501 15.472 6.08363 18.339 6.08363 18.4766C6.08363 18.5684 5.90015 18.9124 5.64785 19.2565C5.4185 19.6005 4.63868 20.9078 3.90473 22.1693C3.17079 23.4308 2.48272 24.4858 2.36804 24.5317C2.04694 24.6693 2.16162 25.3574 2.68914 26.1831C3.65244 27.6968 3.76712 27.9032 3.99648 28.4078C4.40932 29.3253 5.39556 30.7702 5.60198 30.7702C5.71666 30.7702 6.0607 30.2656 6.3818 29.6693C7.50565 27.5363 10.2121 22.8344 10.9231 21.7794C11.1754 21.4354 11.3589 21.0913 11.3589 21.0225C11.3589 20.9537 12.1387 19.6005 13.079 18.0179C14.0194 16.4354 14.7992 15.0821 14.7992 14.9904C14.7992 14.9216 15.0745 14.4629 15.3956 13.9812C15.7396 13.4996 15.946 13.0179 15.8543 12.9262C15.602 12.6968 9.79923 12.7198 9.38639 12.9491ZM24.7075 12.8803C23.6754 12.995 23.6754 12.995 22.5745 15.1739C22.2992 15.7473 21.7258 16.7106 21.3359 17.3528C20.9231 17.972 20.2579 19.1188 19.8451 19.8757C19.4323 20.6326 18.9735 21.4124 18.8359 21.5959C18.6983 21.7794 18.3772 22.3069 18.1249 22.7427C17.3222 24.1876 16.657 25.3574 16.1754 26.1831C15.3497 27.5821 14.7534 28.6142 12.0928 33.2473L9.47813 37.7656L9.89097 38.5684C10.1203 39.0042 10.7396 40.0821 11.2671 40.9766C11.7717 41.8482 12.2763 42.8115 12.368 43.0867C12.4598 43.3849 12.6203 43.6142 12.7121 43.6142C12.8038 43.6142 13.102 44.05 13.4001 44.5775C13.6754 45.128 14.1112 45.862 14.3635 46.2519C14.5928 46.6188 14.9368 47.2381 15.1203 47.628C15.3038 47.995 15.7625 48.7519 16.1524 49.3023L16.8635 50.2656H45.3268L45.7167 49.5775C45.9231 49.2106 46.1754 48.8895 46.2901 48.8895C46.3818 48.8895 46.4506 48.7748 46.4506 48.6372C46.4506 48.4996 46.7946 47.7886 47.2304 47.0776C47.6433 46.3665 48.2855 45.2656 48.6295 44.6464C48.9735 44.0042 49.9598 42.3069 50.8084 40.862C56.0378 31.9399 55.946 32.1234 55.602 31.8941C55.4185 31.7794 54.9827 31.7335 54.6157 31.8023C54.2488 31.8711 52.8956 31.917 51.6112 31.917H49.2488L47.8268 34.3711C47.0469 35.7473 45.5332 38.3161 44.4781 40.1051C43.4231 41.8941 42.5515 43.4537 42.5515 43.5913C42.5515 44.2794 41.4965 44.3482 30.7855 44.3253C24.8451 44.3023 19.9827 44.2794 19.9598 44.2335C19.3635 43.4766 16.4047 38.1326 16.4047 37.8574C16.4047 37.628 16.8635 36.6647 17.4368 35.7473C18.0102 34.8069 18.469 33.9583 18.469 33.8895C18.469 33.7977 18.7212 33.3849 19.0424 32.972C19.3635 32.5592 19.6157 32.1464 19.6157 32.0546C19.6157 31.9629 20.1433 31.0225 20.7625 29.9445C21.4047 28.8665 21.9093 27.972 21.9093 27.9262C21.9093 27.8344 24.524 23.362 25.4644 21.8711C25.8084 21.3436 26.3359 20.4262 26.6341 19.8298C26.9552 19.2335 27.735 17.9032 28.3543 16.8482C28.9735 15.7931 29.4781 14.8757 29.4781 14.784C29.4781 14.7152 29.7534 14.3023 30.0745 13.8665C30.3956 13.4308 30.602 13.0179 30.5332 12.9262C30.3497 12.7427 26.1066 12.7198 24.7075 12.8803Z" fill="black"/>
<path d="M34.547 19.7379C34.2259 20.1049 33.6984 20.9076 33.3773 21.5039C32.6204 22.9948 31.9323 24.2333 26.2442 34.0269C25.7396 34.8526 25.3497 35.6324 25.3497 35.7241C25.3497 35.8159 25.1204 36.137 24.8681 36.4122C24.2488 37.0773 24.4323 37.7654 25.1892 37.559C25.4644 37.4902 28.5378 37.4214 32.024 37.4214H38.3314L38.836 36.4351C39.4782 35.1966 40.2809 33.7975 40.8085 33.0177C41.5195 31.9397 41.313 31.848 37.9415 31.825C34.9369 31.8021 34.8681 31.8021 34.7993 31.2975C34.7534 30.9764 35.1892 29.9902 35.9231 28.7746C36.5883 27.6737 37.3222 26.3893 37.5516 25.9076L37.9644 25.0361H48.7442C55.5103 25.0361 59.5241 24.9443 59.5241 24.8067C59.5241 24.5544 56.8635 20.0361 56.3589 19.4627C56.0378 19.0957 55.2809 19.0728 45.5791 19.0728L35.1433 19.0957L34.547 19.7379Z" fill="black"/>
</g>
<defs>
<clipPath id="clip0">
<rect width="59.6659" height="50" fill="white" transform="translate(0.952515 0.265625)"/>
</clipPath>
</defs>
</svg>
