<svg width="25" height="27" viewBox="0 0 25 27" fill="none" xmlns="http://www.w3.org/2000/svg">
<path d="M22.3214 0.8125H2.67857C1.96817 0.8125 1.28686 1.09894 0.784535 1.6088C0.282206 2.11867 0 2.81019 0 3.53125L0 23.4688C0 24.1898 0.282206 24.8813 0.784535 25.3912C1.28686 25.9011 1.96817 26.1875 2.67857 26.1875H22.3214C23.0318 26.1875 23.7131 25.9011 24.2155 25.3912C24.7178 24.8813 25 24.1898 25 23.4688V3.53125C25 2.81019 24.7178 2.11867 24.2155 1.6088C23.7131 1.09894 23.0318 0.8125 22.3214 0.8125ZM21.4068 18.2221L20.5698 21.9038C20.5272 22.0909 20.4235 22.258 20.2754 22.3776C20.1273 22.4972 19.9437 22.5624 19.7545 22.5625C10.8259 22.5625 3.57143 15.2156 3.57143 6.13672C3.57807 5.94644 3.64471 5.76334 3.76154 5.61438C3.87837 5.46541 4.03922 5.35844 4.22042 5.3092L7.84766 4.45959C7.90953 4.44631 7.97249 4.43891 8.03571 4.4375C8.19758 4.44579 8.35431 4.49791 8.48963 4.58845C8.62495 4.67899 8.73393 4.80464 8.80525 4.95236L10.4794 8.91721C10.5204 9.02411 10.5432 9.1373 10.5469 9.25195C10.5332 9.50346 10.4231 9.73954 10.24 9.90955L8.12556 11.6654C9.4067 14.4215 11.5921 16.6397 14.3075 17.9401L16.0374 15.7939C16.2049 15.6081 16.4375 15.4963 16.6853 15.4824C16.7982 15.4861 16.9098 15.5093 17.0151 15.551L20.9213 17.2502C21.0669 17.3225 21.1908 17.4331 21.28 17.5704C21.3692 17.7078 21.4205 17.8669 21.4286 18.0312C21.4275 18.0954 21.4202 18.1594 21.4068 18.2221Z" fill="#666666"/>
</svg>
