<svg width="63" height="53" viewBox="0 0 63 53" fill="none" xmlns="http://www.w3.org/2000/svg">
<path d="M2.97479 50C0.991597 41.3821 0 33.9024 0 27.561C0 18.4553 2.14846 11.626 6.44538 7.07317C10.7423 2.35772 17.0224 0 25.2857 0V9.7561C20.9888 9.7561 17.8487 10.8943 15.8655 13.1707C14.0476 15.4472 13.1387 18.8618 13.1387 23.4146H25.5336C25.5336 23.4146 33.4499 43.2827 25.5336 50C18.8163 55.6999 2.97479 50 2.97479 50ZM36.4412 50C34.458 41.3821 33.4664 33.9024 33.4664 27.561C33.4664 18.4553 35.6148 11.626 39.9118 7.07317C44.2087 2.35772 50.4888 0 58.7521 0V9.7561C54.4552 9.7561 51.3151 10.8943 49.3319 13.1707C47.514 15.4472 46.605 18.8618 46.605 23.4146H58.7521C58.7521 23.4146 66.8906 43.2517 59 50C52.3048 55.726 36.4412 50 36.4412 50Z" fill="white"/>
</svg>
