<?xml version="1.0" standalone="no"?><!DOCTYPE svg PUBLIC "-//W3C//DTD SVG 1.1//EN" "http://www.w3.org/Graphics/SVG/1.1/DTD/svg11.dtd"><svg t="1609935749812" class="icon" viewBox="0 0 1024 1024" version="1.1" xmlns="http://www.w3.org/2000/svg" p-id="6039" xmlns:xlink="http://www.w3.org/1999/xlink" width="64" height="64"><defs><style type="text/css"></style></defs><path d="M603.9 413.9l147.2 152.5 36-34.8-183-189.5-166.9 171.3-183.5-183.1-35.4 35.4 219.4 218.9z" p-id="6040" fill="#bfbfbf"></path><path d="M920.1 117.4H536.5V65h-50v52.4h-385c-20.4 0-37 16.6-37 37v536.5c0 20.4 16.6 37 37 37h384.9v88.7L312 889.8l19.4 46.1L513 859.7l181.6 76.2 19.4-46.1-177.6-74.5V728H920c20.4 0 37-16.6 37-37V154.4c0.1-20.4-16.5-37-36.9-37z m-13 560.5H114.5V167.4H907v510.5z" p-id="6041" fill="#bfbfbf"></path></svg>