<?xml version="1.0" standalone="no"?><!DOCTYPE svg PUBLIC "-//W3C//DTD SVG 1.1//EN" "http://www.w3.org/Graphics/SVG/1.1/DTD/svg11.dtd"><svg t="1609935916792" class="icon" viewBox="0 0 1024 1024" version="1.1" xmlns="http://www.w3.org/2000/svg" p-id="8404" xmlns:xlink="http://www.w3.org/1999/xlink" width="64" height="64"><defs><style type="text/css"></style></defs><path d="M801.274 157.172c0-21.7-17.937-39.291-40.065-39.291H661.052v39.291c0 21.702-17.937 39.294-40.065 39.294H280.446c-22.125 0-40.062-17.591-40.062-39.294v-39.291H120.192c-22.125 0-40.065 17.591-40.065 39.291v746.571c0 21.702 17.939 39.296 40.065 39.296H440.7l80.129 78.585H80.128C35.874 1021.623 0 986.441 0 943.039V117.881c0-43.402 35.874-78.59 80.128-78.59h160.256c0-21.7 17.937-39.291 40.062-39.291h340.541c22.128 0 40.065 17.591 40.065 39.291h140.223c44.253 0 80.127 35.188 80.127 78.59v360.582l-80.127 81.611V157.172zM620.987 432.227H260.415c-11.065 0-20.031-8.798-20.031-19.649v-19.644c0-10.854 8.966-19.647 20.031-19.647h360.572c11.063 0 20.034 8.793 20.034 19.647v19.644c0 10.851-8.971 19.649-20.034 19.649z m20.034 196.465c0 10.849-8.971 19.644-20.034 19.644H260.415c-11.065 0-20.031-8.796-20.031-19.644v-19.649c0-10.849 8.966-19.644 20.031-19.644h360.572c11.063 0 20.034 8.796 20.034 19.644v19.649zM466.413 750.879L614.66 877.587l406.964-406.069-401.418 550.105-206.691-218.919 52.898-51.825z" p-id="8405" fill="#bfbfbf"></path></svg>