<?xml version="1.0" standalone="no"?><!DOCTYPE svg PUBLIC "-//W3C//DTD SVG 1.1//EN" "http://www.w3.org/Graphics/SVG/1.1/DTD/svg11.dtd"><svg t="1609935825835" class="icon" viewBox="0 0 1699 1024" version="1.1" xmlns="http://www.w3.org/2000/svg" p-id="7127" xmlns:xlink="http://www.w3.org/1999/xlink" width="106.1875" height="64"><defs><style type="text/css"></style></defs><path d="M1264.228998 538.019498c-16.992325-16.992325-27.18772-33.98465-33.98465-54.375441-13.59386-33.98465-16.992325-67.969301-13.593861-105.352416 13.59386-95.157021-44.180046-180.118648-44.180045-180.118648-169.923252-227.697158-373.831155-214.103298-489.378967-176.720182-74.766231 23.789255-139.337067 67.969301-186.915578 132.540137-183.517113 241.291018 33.98465 543.754408 33.984651 543.754407 20.39079 27.18772 23.789255 61.172371 23.789255 91.758557 0 27.18772-10.195395 54.375441-27.18772 74.766231-30.586185 33.98465-16.992325 57.773906-16.992326 57.773906 16.992325 30.586185 64.570836 54.375441 115.547812 71.367766 64.570836 20.39079 132.540137 30.586185 197.110973 30.586185h27.18772c47.578511 0 54.375441-33.98465 54.375441-33.98465 10.195395-37.383116 27.18772-61.172371 47.578511-74.766232 20.39079-16.992325 47.578511-27.18772 74.766231-27.18772h108.750881c23.789255 0 40.781581-16.992325 40.781581-40.781581v-23.789255c0-10.195395 3.398465-23.789255 10.195395-30.586185 20.39079-27.18772 13.59386-40.781581 13.59386-40.781581-6.79693-16.992325-30.586185-16.992325-30.586185-16.992325 37.383116 3.398465 37.383116-30.586185 37.383115-44.180046 0-16.992325 0-30.586185 3.398465-47.57851 3.398465-20.39079 10.195395-40.781581 10.195395-40.781581 101.953951 0 44.180046-64.570836 44.180046-64.570836z" p-id="7128" fill="#bfbfbf"></path></svg>