<svg width="38" height="36" viewBox="0 0 38 36" fill="none" xmlns="http://www.w3.org/2000/svg">
<path d="M18.8132 7.63259C21.6379 7.63259 24.2996 8.88481 26.2502 10.8423V10.8481C26.2502 9.90809 26.8827 9.197 27.7568 9.197H27.9788C29.3582 9.197 29.6345 10.4978 29.6345 10.9082L29.6403 25.5175C29.5443 26.4748 30.6289 26.9697 31.2313 26.3546C33.5727 23.9461 36.3789 13.9607 29.7733 8.1795C23.6128 2.78328 15.3444 3.67475 10.9484 6.70412C6.27597 9.93237 3.28938 17.063 6.19041 23.7646C9.35853 31.0709 18.4154 33.2505 23.8059 31.0767C26.5346 29.9748 27.7926 33.6586 24.9563 34.8646C20.6817 36.688 8.76884 36.5018 3.20497 26.8668C-0.553998 20.3583 -0.355124 8.90909 9.61869 2.97753C17.2418 -1.56307 27.3001 -0.305065 33.3634 6.0254C39.6997 12.6496 39.3332 25.0434 33.1472 29.8615C30.3456 32.0526 26.1854 29.9216 26.2155 26.7292L26.1843 25.6886C24.2337 27.6207 21.6379 28.7538 18.8132 28.7538C13.225 28.7538 8.30519 23.8328 8.30519 18.2504C8.30519 12.6079 13.225 7.6349 18.8132 7.6349V7.63259ZM25.842 17.8469C25.6304 13.7572 22.5953 11.2944 18.9277 11.2944H18.7889C14.5617 11.2944 12.2133 14.6244 12.2133 18.3996C12.2133 22.6326 15.0496 25.3059 18.7716 25.3059C22.926 25.3059 25.6536 22.2661 25.8524 18.6702L25.842 17.8469Z" fill="black"/>
</svg>
