<?xml version="1.0" standalone="no"?><!DOCTYPE svg PUBLIC "-//W3C//DTD SVG 1.1//EN" "http://www.w3.org/Graphics/SVG/1.1/DTD/svg11.dtd"><svg t="1610109688277" class="icon" viewBox="0 0 1024 1024" version="1.1" xmlns="http://www.w3.org/2000/svg" p-id="9943" xmlns:xlink="http://www.w3.org/1999/xlink" width="128" height="128"><defs><style type="text/css"></style></defs><path d="M513.02323 1023.998464c-207.359689 0.511999-394.239409-124.415813-473.599289-315.903526s-35.839946-411.647383 110.591834-558.079163 367.103449-190.463714 558.079163-110.591834c191.487713 79.359881 316.415525 266.239601 315.903526 473.599289 0 282.111577-228.351657 510.463234-510.975234 510.975234z m112.639832-738.814892l-15.871977 2.047997c-9.727985 2.047997-19.455971 5.119992-28.671957 8.703987-36.351945 15.871976-63.487905 48.127928-72.703891 86.52787-5.119992 19.96797-5.119992 40.959939 0 60.41591-19.455971 0-38.911942-2.559996-57.343914-7.679989-57.343914-12.799981-111.103833-38.911942-156.671765-76.287885-13.823979-10.751984-26.62396-23.551965-37.887943-37.375944-4.095994-4.095994-8.191988-8.703987-11.775982-13.82398-6.143991 10.239985-10.751984 21.503968-13.823979 33.279951-9.727985 41.471938 1.023998 84.991873 28.671957 117.247824 6.65599 8.191988 16.895975 13.31198 23.551964 20.479969-5.631992 1.023998-11.775982 0.511999-17.407974-1.535998-9.215986-1.535998-18.431972-4.095994-27.135959-7.679988l-13.823979-5.119993c-1.535998 45.055932 21.503968 87.551869 60.415909 110.591835 12.287982 9.215986 26.62396 14.847978 41.983937 16.895974-8.191988 7.167989-44.543933 4.095994-57.343914 2.559996 12.799981 38.911942 43.007935 69.119896 81.407878 82.431877 12.287982 4.607993 25.087962 6.65599 37.887943 6.65599-10.751984 8.703987-22.527966 16.383975-34.815947 22.527966-24.063964 13.31198-50.175925 22.527966-76.799885 28.159958-11.775982 2.559996-24.063964 2.047997-37.375944 4.095994-13.823979 1.023998-27.647959 0.511999-40.959939-1.535998l11.263983 6.65599c11.775982 7.167989 23.551965 13.31198 36.351946 18.431972 24.575963 10.239985 49.663926 18.431972 75.263887 24.575963 60.415909 12.799981 123.391815 10.751984 182.783726-6.14399 134.143799-41.983937 219.135671-140.28779 251.391623-285.183573 5.119992-27.135959 7.167989-55.295917 6.14399-82.943875l20.47997-16.895975c16.895975-14.335978 31.743952-31.231953 43.519934-50.175925-23.039965 10.239985-47.615929 16.895975-72.70389 19.96797 5.119992-2.559996 9.727985-6.143991 14.335978-10.239984 19.455971-15.871976 33.791949-36.863945 41.471938-60.41591l-15.871976 8.703987c-20.991969 11.263983-43.519935 18.431972-66.559901 22.015967-26.111961-27.647959-62.975906-42.495936-100.863848-40.447939v0.511999h-0.511999z" fill="#ffffff" p-id="9944"></path></svg>