<svg width="70" height="70" viewBox="0 0 70 70" fill="none" xmlns="http://www.w3.org/2000/svg">
<rect width="70" height="70" fill="#484FA0"/>
<path d="M50.2632 23.4373H42.6491V20.2187C42.6491 18.4323 40.955 17 38.8421 17H31.2281C29.1152 17 27.4211 18.4323 27.4211 20.2187V23.4373H19.807C17.6941 23.4373 16.019 24.8696 16.019 26.656L16 44.3586C16 46.145 17.6941 47.5773 19.807 47.5773H50.2632C52.3761 47.5773 54.0702 46.145 54.0702 44.3586V26.656C54.0702 24.8696 52.3761 23.4373 50.2632 23.4373ZM38.8421 23.4373H31.2281V20.2187H38.8421V23.4373Z" fill="white"/>
<rect x="22" y="23" width="3" height="25" fill="#484FA0"/>
<rect x="45" y="23" width="3" height="25" fill="#484FA0"/>
</svg>
